<svg height="396.1" width="1999.2" xmlns="http://www.w3.org/2000/svg"><path d="M680.6 147c-2.5-2.7-2.2-6.8.7-9 0 0 16.8-13 30.4-17.9s27.5-7.3 41.7-7.3c14.6 0 27 1.8 37.1 5.4s18.3 9.2 24.6 16.7c6.3 7.6 10.9 17.1 13.8 28.6s4 34.3 4 34.3c.2 3.7.3 9.7.3 13.4v74.1c0 3.7-3 6.7-6.7 6.7h-38.9c-3.7 0-6.7-3-6.7-6.7v-5c0-3.7-.5-6.7-1-6.7-4.4 7.2-11.1 12.8-20 16.7s-18.6 5.9-29.1 5.9c-7 0-14.2-.9-21.6-2.8s-14.2-4.9-20.4-9.1-11.2-9.8-15.2-16.7c-4-7-5.9-15.6-5.9-25.8 0-12.5 3.4-22.7 10.3-30.3 6.9-7.7 15.7-13.6 26.5-17.8s22.8-7 36.1-8.4 32-1.9 32-1.9c3.7-.1 6.7-1.4 6.7-3 0-8.6-3-14.9-9.1-19-6-4.1-13.5-6.1-22.3-6.1-8.1 0-16 1.7-23.5 5.2-7.6 3.5-14 7.7-19.3 12.5zm100.3 75.3c0-3.3-3-5.9-6.7-5.9h-.6c-6.3 0-12.6.3-19 .9s-12.1 1.7-17.1 3.3-9.1 4-12.4 7.1-4.9 7.3-4.9 12.4c0 3.3.8 6 2.3 8.4 1.5 2.3 3.4 4.2 5.8 5.6 2.3 1.4 5 2.4 8 3s5.9.9 8.7.9c11.6 0 20.5-3.2 26.7-9.6 6.1-6.5 9.2-15.2 9.2-26.1m193.3-57.5c-2.6 2.7-7 2.9-9.9.6 0 0-4.9-3.9-11.2-6.9s-12.9-4.5-19.9-4.5c-5.3 0-10.3 1-14.8 3.1s-6.8 5.7-6.8 10.8c0 4.9 2.5 8.4 7.5 10.5s13.1 4.4 24.2 7c6.5 1.4 13.1 3.4 19.7 5.9 6.6 2.6 12.6 5.9 18 10.1 5.3 4.2 9.6 9.3 12.9 15.3s4.9 13.3 4.9 21.6c0 10.9-2.2 20.2-6.6 27.7-4.4 7.6-10.2 13.7-17.3 18.3s-15 8-23.9 10.1c-8.8 2.1-17.7 3.1-26.5 3.1-14.2 0-28.1-2.3-41.7-6.8s-28.6-16-28.6-16c-2.9-2.2-3.3-6.3-.7-8.9l27.4-28.9c5.1 5.6 11.4 10.2 18.8 13.9s15.3 5.6 23.7 5.6c4.6 0 9.2-1.1 13.8-3.3 4.5-2.2 6.8-6.1 6.8-11.7 0-5.3-2.8-9.3-8.4-11.9s-14.3-5.2-26.1-8c-6-1.4-12.1-3.2-18.1-5.6-6-2.3-11.4-5.5-16.2-9.4-4.8-4-8.7-8.8-11.7-14.6S859 179.1 859 171c0-10.5 2.2-19.3 6.6-26.7 4.4-7.3 10.1-13.3 17.1-18 7-4.6 14.7-8.1 23.2-10.3s16.9-3.3 25.3-3.3c13 0 25.7 2 38.2 6.1 12.4 4.1 22.9 10.2 31.5 18.3zm162 147.1c-1.3 3.4-3.6 9-5.1 12.4 0 0-4.7 11-9 18.1s-9.4 13.1-15.3 18.1-12.9 8.8-20.9 11.4-17.5 3.9-28.4 3.9c-5.4 0-10.9-.3-16.6-1s-8.3-1.3-8.3-1.3c-3.6-.8-6.2-4.5-5.7-8.1l5.4-41.5c2.8.9 5.9 1.7 9.2 2.3 3.4.6 6.5.9 9.2.9 8.8 0 15.2-2.1 19.2-6.1 3.9-4.1 7.3-11.2 7.3-11.2 1.6-3.3 3.9-8.9 5.3-12.3l.7-1.8c1.3-3.4 1.2-9-.2-12.4l-67.4-158.4c-1.4-3.4.4-6.2 4.1-6.2l50-.1c3.7 0 7.7 2.8 8.9 6.3l34.4 98.8c1.2 3.5 2.4 6.3 2.7 6.3s1.4-2.9 2.5-6.4l30.4-98.8c1.1-3.5 5-6.4 8.7-6.4l47.2-.1c3.7 0 5.6 2.8 4.3 6.2z" fill="##27272D"/><path d="M1547.3 207.3v9.3c-.2 2.4-3.4 4.3-7.1 4.3h-119.1c.5 4.9 1.9 9.3 4.4 13.2 2.4 4 5.6 7.4 9.4 10.3s8.1 5.2 12.9 6.8 9.7 2.4 14.8 2.4c9.1 0 16.7-1.7 23-5.1s10.8-8.2 10.8-8.2c2.5-2.7 7.1-3.3 10.3-1.3l34.1 21.5c-8.1 11.9-18.9 21-32.2 27.4-13.4 6.4-28.9 9.6-46.5 9.6-13 0-25.3-2-36.9-6.1s-21.8-10-30.5-17.8-15.6-17.4-20.6-28.8-7.5-24.4-7.5-39c0-14.2 2.4-27 7.3-38.5s11.5-21.3 19.9-29.3 18.2-14.2 29.6-18.7c11.4-4.4 23.7-6.6 36.9-6.6 12.8 0 24.5 2.1 35.2 6.4s19.9 10.5 27.5 18.7c7.7 8.1 13.6 18 18 29.6 4.2 11.8 6.3 25 6.3 39.9m-59.3-22c3.7 0 6.2-3 5.6-6.6 0 0-1.7-10.2-7.4-16.7s-14.2-9.8-25.6-9.8c-5.6 0-10.7.9-15.3 2.6s-8.7 4.1-12.2 7.1-6.3 6.6-8.4 10.6c-2.1 4.1-3.3 8.3-3.5 12.7h66.8z" fill="#29ba9c"/><path d="M654.5 204.2v9.6c-.2 2.5-3.4 4.5-7.1 4.5H523.7c.5 5.1 2 9.6 4.5 13.7s5.8 7.6 9.8 10.7c4 3 8.4 5.4 13.4 7.1 4.9 1.7 10 2.5 15.4 2.5 9.4 0 17.4-1.7 23.9-5.2s11.3-8.7 11.3-8.7c2.5-2.7 7.1-3.3 10.3-1.3l35.5 22.4c-8.4 12.3-19.6 21.7-33.4 28.4-13.9 6.6-29.9 9.9-48.2 9.9-13.5 0-26.3-2.1-38.3-6.3-12.1-4.2-22.6-10.4-31.6-18.4-9-8.1-16.1-18-21.3-29.8s-7.8-25.3-7.8-40.5c0-14.7 2.5-28 7.6-39.9s11.9-22 20.6-30.4c8.7-8.3 18.9-14.8 30.7-19.3 11.8-4.6 24.6-6.9 38.3-6.9 13.2 0 25.4 2.2 36.5 6.7s20.6 10.9 28.5 19.3c8 8.4 14.2 18.7 18.6 30.7 4.3 12.1 6.5 25.8 6.5 41.2m-61.3-22.7c3.7 0 6.2-3 5.6-6.6 0 0-1.8-10.8-7.7-17.6-5.9-6.7-14.8-10.1-26.6-10.1-5.8 0-11.1.9-15.9 2.7s-9 4.3-12.6 7.4-6.5 6.8-8.7 11-3.4 8.6-3.6 13.2z" fill="##27272D"/><path d="M1711 292c-3.7 0-6.7-3-6.7-6.7v-9.2c0-3.7-.3-6.7-.7-6.7-5.6 8.8-13.5 15.6-23.9 20.4-10.3 4.8-21.3 7.1-32.9 7.1-13 0-24.6-2.6-34.9-7.7-10.2-5.1-18.9-11.9-26-20.4s-12.5-18.3-16.2-29.5-5.6-22.8-5.6-34.9 1.9-23.6 5.8-34.7c3.8-11 9.3-20.7 16.4-29.1s15.7-15 25.8-19.9 21.4-7.3 34-7.3c12.8 0 23.6 2.4 32.4 7.3s15.7 11.4 15.7 11.4c2.7 2.5 5 4.6 5.2 4.6s.3-3 .3-6.7V35c0-3.7 3-6.7 6.7-6.7h43.7c3.7 0 6.7 3 6.7 6.7v250.1c0 3.7-3 6.7-6.7 6.7H1711zm-8.8-87.1c0-5.6-1-11-3-16.4-2-5.3-4.8-10.1-8.4-14.3s-8-7.5-13.1-10.1-10.9-3.8-17.4-3.8c-6.7 0-12.7 1.3-17.8 3.8-5.1 2.6-9.4 5.9-12.9 9.9-3.5 4.1-6.1 8.8-7.9 14.1-1.7 5.4-2.6 10.8-2.6 16.4s.9 11.1 2.6 16.6c1.8 5.5 4.4 10.3 7.9 14.5s7.8 7.6 12.9 10.1c5.1 2.6 11 3.8 17.8 3.8 6.5 0 12.3-1.3 17.4-3.8 5.1-2.6 9.5-5.9 13.1-10.1s6.4-8.9 8.4-14.3 3-10.9 3-16.4M1852.1 63c0 4.4-.9 8.5-2.6 12.4-1.7 3.8-4.1 7.1-7 9.9s-6.4 5-10.5 6.6-8.3 2.4-12.7 2.4c-9.3 0-17.1-3.1-23.4-9.2-6.3-6.2-9.4-13.5-9.4-22.1 0-4.2.8-8.2 2.4-12s3.9-7.1 7-9.9c3-2.8 6.5-5 10.5-6.8 3.9-1.7 8.2-2.6 12.9-2.6 4.4 0 8.7.8 12.7 2.4 4.1 1.6 7.5 3.8 10.5 6.6 2.9 2.8 5.2 6.1 7 9.9 1.8 3.9 2.6 8 2.6 12.4m-61.3 62.1c0-3.7 3-6.7 6.7-6.7h43.7c3.7 0 6.7 3 6.7 6.7v160.2c0 3.7-3 6.7-6.7 6.7h-43.7c-3.7 0-6.7-3-6.7-6.7zm205.9 33.7c-.2 3.7-2.6 6.2-5.4 5.5l-2.4-.2c-2.4-.2-4.8-.4-7.1-.4-7.7 0-14.1 1.4-19.3 4.2s-9.4 6.1-12.6 10.1c-3.1 3.9-5.4 8.2-6.8 12.9-1.4 4.6-1.5 5.5-1.5 5.5-.3 3.7-.6 9.7-.6 13.4v75.6c0 3.7-3 6.7-6.7 6.7h-43.7c-3.7 0-6.7-3-6.7-6.7v-160c0-3.7 3-6.7 6.7-6.7h41.7c3.7 0 6.7 3 6.7 6.7V137c0 3.7.3 6.7.7 6.7 4.4-8.9 10.7-16.1 18.8-21.8 8.1-5.6 17.5-8.4 28.2-8.4 2.3 0 4.6.1 6.8.3s4 .6 5.4 1zm-645.5 0c-.2 3.7-2.6 6.2-5.4 5.5l-2.4-.2c-2.4-.2-4.8-.4-7.1-.4-7.7 0-14.1 1.4-19.3 4.2s-9.4 6.1-12.6 10.1c-3.1 3.9-5.4 8.2-6.8 12.9-1.4 4.6-1.5 5.5-1.5 5.5-.3 3.7-.6 9.7-.6 13.4v75.6c0 3.7-3 6.7-6.7 6.7H1245c-3.7 0-6.7-3-6.7-6.7v-160c0-3.7 3-6.7 6.7-6.7h41.6c3.7 0 6.7 3 6.7 6.7V137c0 3.7.3 6.7.7 6.7 4.4-8.9 10.7-16.1 18.8-21.8 8.1-5.6 17.5-8.4 28.2-8.4 2.3 0 4.6.1 6.8.3s4 .6 5.4 1z" fill="#29ba9c"/><path d="M338.1 338.1c-77.3 77.3-202.7 77.3-280.1 0-77.3-77.4-77.3-202.8 0-280.1s202.7-77.3 280.1 0c77.3 77.3 77.3 202.7 0 280.1" fill="#1abc9b"/><path d="M318.4 219.9h-75c-4.8 0-7.2 5.8-3.8 9.1l24.3 24.3c-2.6 2.9-5.3 5.7-8.2 8.3-3.5 3.1-7.2 6-11.1 8.5-1.1.7-2.4 1.3-3.6 2-12.9 7.4-27.6 11.8-42.9 11.8-39.9 0-73.6-27.4-83.1-64.4h69c1.8 0 4.3-1.1 5.6-2.3l16.7-16.8c1.3-1.3 1.3-3.4 0-4.7l-16.7-16.8c-1.3-1.3-3.8-2.3-5.6-2.3h-69c9.6-37 43.3-64.4 83.1-64.4 26.7 0 51.3 12.1 67.8 33.4.8 1.2 2.3 1.8 3.8 2 1.5 0 3-.5 4.2-1.5l23-23.2c2-1.8 2-5 .3-7.2-24.5-29.5-60.7-46.5-99.1-46.5-63.6 0-116.7 46.5-127 107.3-1.2 7-1.8 14.2-1.8 21.5s.7 14.5 1.8 21.5c10.3 60.8 63.4 107.3 127 107.3 17.4 0 34.4-3.7 50.2-10.5v.1c2.9-1.3 5.6-2.6 8.3-3.9.5-.2.9-.5 1.4-.7 6.6-3.4 12.7-7.3 18.8-12 .8-.6 1.6-1.3 2.4-2 2.1-1.7 4.3-3.6 6.6-5.6.4-.3.8-.6 1.1-.9 2.5-2.3 5-4.7 7.7-7.3l20.2 20.2c3.4 3.4 9.1 1 9.1-3.8v-75c-.1-3.1-2.5-5.5-5.5-5.5" fill="#fff"/></svg>